<?xml version="1.0" encoding="UTF-8"?>
<svg version="1.1" xmlns="http://www.w3.org/2000/svg" width="500" height="500" viewBox="105 130 290 270">
  <path d="M0 0 C9.51138062 0.02161677 18.95015133 0.48960242 28.4375 1.1328125 C30.00637907 5.8394497 28.19486531 9.9628206 27.03125 14.6875 C26.46584512 17.96833619 26.52432219 19.97273666 27.4375 23.1328125 C29.22949472 23.91563898 29.22949472 23.91563898 31.4375 24.1328125 C33.8803879 22.97790635 35.15292603 21.90168532 36.1015625 19.33862305 C36.66144869 17.11271521 37.12975243 14.88686287 37.5625 12.6328125 C37.87204652 11.10042934 38.18695193 9.56911665 38.5078125 8.0390625 C38.63945801 7.36166016 38.77110352 6.68425781 38.90673828 5.98632812 C39.4375 4.1328125 39.4375 4.1328125 41.4375 1.1328125 C44.0625 0.9453125 44.0625 0.9453125 46.4375 1.1328125 C47.78665457 5.522599 46.80236973 9.14853008 45.75 13.5078125 C45.50733398 14.6215625 45.50733398 14.6215625 45.25976562 15.7578125 C43.85687559 21.70564591 41.89325891 26.4956399 36.625 30.0078125 C31.64686766 31.76480039 28.06602672 31.74735088 23.125 29.8828125 C20.24604829 28.00814627 19.32137365 27.40314502 18.4375 24.1328125 C18.05157871 18.34399314 18.84831077 13.6949748 20.4375 8.1328125 C15.9825 8.6278125 15.9825 8.6278125 11.4375 9.1328125 C10.43402209 12.25673482 9.4345752 15.38184701 8.4375 18.5078125 C8.00824219 19.84199219 8.00824219 19.84199219 7.5703125 21.203125 C7.29960937 22.05390625 7.02890625 22.9046875 6.75 23.78125 C6.37294922 24.95953369 6.37294922 24.95953369 5.98828125 26.16162109 C5.3477974 28.11273355 5.3477974 28.11273355 5.4375 30.1328125 C9.31611674 31.42568475 13.02122817 31.33486827 17.06640625 31.37109375 C18.36106056 31.38320137 18.36106056 31.38320137 19.68186951 31.39555359 C21.51860552 31.40939841 23.3553673 31.42011878 25.19213867 31.42797852 C27.03726957 31.4393692 28.88237102 31.45960926 30.72729492 31.48950195 C50.08662476 31.8027937 72.68036833 29.68445858 88.47265625 17.26953125 C90.98175265 15.81794665 92.58350119 15.76787495 95.4375 16.1328125 C100.28926028 21.27861886 101.60337911 28.46797883 103.4375 35.1328125 C103.614021 35.74141113 103.79054199 36.35000977 103.97241211 36.97705078 C108.3776671 57.39615923 102.97239079 77.2018022 92.015625 94.359375 C90.9005001 96.00582412 89.67973217 97.58002228 88.4375 99.1328125 C87.7775 99.1328125 87.1175 99.1328125 86.4375 99.1328125 C86.17710937 99.72449219 85.91671875 100.31617188 85.6484375 100.92578125 C78.75765262 113.4847924 60.62632505 119.1324223 47.890625 122.8828125 C30.26469666 127.14142606 12.06376354 123.19552456 -3.5234375 114.4765625 C-7.77709557 111.73919264 -7.77709557 111.73919264 -9.5625 110.1328125 C-9.5625 109.4728125 -9.5625 108.8128125 -9.5625 108.1328125 C-10.15675781 107.85953125 -10.75101563 107.58625 -11.36328125 107.3046875 C-22.83048309 101.19427799 -29.63322063 86.33844904 -33.58984375 74.58203125 C-35.6810621 67.16618467 -36.95200008 60.29580235 -36.9375 52.5703125 C-36.93661377 51.70768799 -36.93572754 50.84506348 -36.93481445 49.95629883 C-36.73640698 39.01770196 -34.01731721 29.10190202 -29.5625 19.1328125 C-23.61158123 18.61080208 -20.97634801 19.09823127 -16.35546875 22.8203125 C-12.20007889 25.86216652 -7.69383183 27.1328125 -2.5625 27.1328125 C-0.5825 20.5328125 1.3975 13.9328125 3.4375 7.1328125 C1.4575 7.1328125 -0.5225 7.1328125 -2.5625 7.1328125 C-3.2225 6.8028125 -3.8825 6.4728125 -4.5625 6.1328125 C-3.49424465 0.18110414 -3.49424465 0.18110414 0 0 Z " fill="#50C4AE" transform="translate(260.5625,195.8671875)" />
  <path d="M0 0 C2.95972958 2.12682139 5.69758752 4.34925846 8.421875 6.76953125 C8.91977539 7.20990723 9.41767578 7.6502832 9.93066406 8.10400391 C26.79826044 23.2679625 38.60478279 44.95660455 40.421875 67.76953125 C41.61484009 95.38007549 36.18702715 119.77144715 17.828125 141.1796875 C0.0919783 160.26907916 -22.78946817 172.61622938 -49.02441406 173.67578125 C-70.63686273 174.23208624 -91.38333824 168.20710239 -108.578125 154.76953125 C-108.578125 154.10953125 -108.578125 153.44953125 -108.578125 152.76953125 C-109.13886719 152.53234375 -109.69960937 152.29515625 -110.27734375 152.05078125 C-126.29506331 143.13089667 -135.92924925 121.49691554 -141.0559082 104.66552734 C-142.90829883 98.13063722 -143.87111305 91.52307823 -144.578125 84.76953125 C-147.878125 84.76953125 -151.178125 84.76953125 -154.578125 84.76953125 C-154.495625 86.33703125 -154.413125 87.90453125 -154.328125 89.51953125 C-154.33502861 94.40038488 -154.33502861 94.40038488 -156.265625 97.33203125 C-160.10912322 99.72123285 -164.04046177 99.89632796 -168.48828125 99.90234375 C-169.46055664 99.90435791 -170.43283203 99.90637207 -171.43457031 99.90844727 C-172.49256836 99.90385498 -173.55056641 99.8992627 -174.640625 99.89453125 C-176.31463379 99.89054321 -176.31463379 99.89054321 -178.02246094 99.88647461 C-188.12748272 99.8324334 -198.22692092 99.6029884 -208.328125 99.33203125 C-209.0837674 99.31247375 -209.83940979 99.29291626 -210.61795044 99.27276611 C-215.60634919 99.14084129 -220.5920475 98.97026596 -225.578125 98.76953125 C-226.26334229 98.74493835 -226.94855957 98.72034546 -227.65454102 98.69500732 C-229.61411925 98.61988665 -231.57275936 98.52139586 -233.53125 98.421875 C-234.65176758 98.36894287 -235.77228516 98.31601074 -236.92675781 98.26147461 C-237.80170898 98.0991333 -238.67666016 97.93679199 -239.578125 97.76953125 C-242.07360309 94.02631412 -241.82265697 92.05137827 -241.80859375 87.58203125 C-241.80790642 86.53366089 -241.80790642 86.53366089 -241.8072052 85.46411133 C-241.80418751 83.98810119 -241.79631561 82.51209411 -241.78393555 81.03613281 C-241.76569244 78.77787989 -241.76342587 76.52003764 -241.76367188 74.26171875 C-241.72581661 63.21260607 -241.72581661 63.21260607 -240.578125 59.76953125 C-238.24485855 58.60289802 -236.80677133 58.61479243 -234.20556641 58.56420898 C-232.8384552 58.53430626 -232.8384552 58.53430626 -231.44372559 58.50379944 C-230.44909302 58.48707687 -229.45446045 58.47035431 -228.4296875 58.453125 C-227.39718872 58.43225327 -226.36468994 58.41138153 -225.30090332 58.38987732 C-221.9350541 58.32362677 -218.56912849 58.26487373 -215.203125 58.20703125 C-212.90999278 58.16491474 -210.61686127 58.12275979 -208.32373047 58.08056641 C-196.11753738 57.86289543 -183.9113932 57.67228114 -171.703125 57.64453125 C-170.59662598 57.63993896 -169.49012695 57.63534668 -168.35009766 57.63061523 C-167.3554248 57.63262939 -166.36075195 57.63464355 -165.3359375 57.63671875 C-164.5020752 57.63784668 -163.66821289 57.63897461 -162.80908203 57.64013672 C-160.5832859 57.76923192 -158.6906188 58.05744818 -156.578125 58.76953125 C-153.5497299 62.99785648 -154.44727772 67.79733472 -154.578125 72.76953125 C-150.948125 72.76953125 -147.318125 72.76953125 -143.578125 72.76953125 C-143.55234375 72.00511719 -143.5265625 71.24070312 -143.5 70.453125 C-142.4325749 50.29334646 -135.02364387 32.48711142 -122.578125 16.76953125 C-121.918125 15.77953125 -121.258125 14.78953125 -120.578125 13.76953125 C-119.918125 13.76953125 -119.258125 13.76953125 -118.578125 13.76953125 C-118.083125 12.28453125 -118.083125 12.28453125 -117.578125 10.76953125 C-116.918125 10.76953125 -116.258125 10.76953125 -115.578125 10.76953125 C-115.578125 10.10953125 -115.578125 9.44953125 -115.578125 8.76953125 C-114.918125 8.76953125 -114.258125 8.76953125 -113.578125 8.76953125 C-113.578125 8.10953125 -113.578125 7.44953125 -113.578125 6.76953125 C-112.918125 6.76953125 -112.258125 6.76953125 -111.578125 6.76953125 C-111.578125 6.10953125 -111.578125 5.44953125 -111.578125 4.76953125 C-78.57270201 -22.15017421 -35.22544783 -22.82255532 0 0 Z M-99.578125 16.76953125 C-100.31160156 17.42308594 -101.04507813 18.07664062 -101.80078125 18.75 C-118.11423332 34.11206722 -126.16847797 54.38559093 -126.98095703 76.67138672 C-127.26057637 96.11477628 -121.63145654 116.80392821 -108.578125 131.76953125 C-107.918125 131.76953125 -107.258125 131.76953125 -106.578125 131.76953125 C-106.35125 132.32640625 -106.124375 132.88328125 -105.890625 133.45703125 C-104.20262464 136.43112713 -102.11135983 138.4896199 -99.578125 140.76953125 C-98.918125 140.76953125 -98.258125 140.76953125 -97.578125 140.76953125 C-97.578125 141.42953125 -97.578125 142.08953125 -97.578125 142.76953125 C-85.30085499 152.0358358 -70.10690185 159.14402886 -54.578125 159.76953125 C-53.72863281 159.80949219 -52.87914062 159.84945312 -52.00390625 159.890625 C-34.50479613 160.31499714 -19.50771847 155.08195188 -5.578125 144.76953125 C-3.89128911 143.12328089 -2.22325422 141.45746058 -0.578125 139.76953125 C0.24816406 139.13917969 1.07445312 138.50882813 1.92578125 137.859375 C4.92172809 135.3510314 7.12424502 132.50324505 9.359375 129.33203125 C9.7932251 128.71948486 10.2270752 128.10693848 10.67407227 127.47583008 C14.73218037 121.58639388 17.77619096 115.41450512 20.421875 108.76953125 C20.73769531 107.980625 21.05351562 107.19171875 21.37890625 106.37890625 C28.90399785 85.76831055 26.88927278 61.37280638 17.8828125 41.55859375 C11.22048771 28.83961007 1.60976508 16.60460344 -10.578125 8.76953125 C-11.36960937 8.24746094 -12.16109375 7.72539062 -12.9765625 7.1875 C-18.30487501 3.81836701 -23.46963869 1.33728047 -29.578125 -0.23046875 C-30.21983643 -0.39820801 -30.86154785 -0.56594727 -31.52270508 -0.73876953 C-55.33083033 -6.55882243 -81.47053237 0.28562139 -99.578125 16.76953125 Z M-205.578125 69.76953125 C-205.578125 75.37953125 -205.578125 80.98953125 -205.578125 86.76953125 C-194.688125 86.76953125 -183.798125 86.76953125 -172.578125 86.76953125 C-172.578125 80.82953125 -172.578125 74.88953125 -172.578125 68.76953125 C-183.66654167 68.68357453 -194.52636027 68.90272617 -205.578125 69.76953125 Z " fill="#0D1625" transform="translate(348.578125,169.23046875)" />
  <path d="M0 0 C-3.62782551 1.29198503 -5.86229022 0.63945355 -9.5 -0.4375 C-30.50624355 -5.52992268 -50.73152646 -0.90662952 -69 10 C-72.22871132 12.12622453 -75.13878135 14.40413631 -78 17 C-78.66 17.58007812 -79.32 18.16015625 -80 18.7578125 C-95.96304527 33.66081179 -103.61577843 54.31346426 -104.40283203 75.90185547 C-104.6642604 94.08033226 -100.06378741 111.06677485 -89.24609375 125.83203125 C-87 129 -87 129 -87 131 C-86.34 131 -85.68 131 -85 131 C-83.34375 132.71484375 -83.34375 132.71484375 -81.5 134.9375 C-79.11073001 137.92045179 -79.11073001 137.92045179 -76 140 C-76 140.66 -76 141.32 -76 142 C-75.25363281 142.27328125 -74.50726563 142.5465625 -73.73828125 142.828125 C-71.18703318 143.91995727 -69.38369966 145.08607684 -67.1875 146.75 C-49.36225158 158.85100059 -28.63816811 158.6872079 -8 157 C-15.49011123 161.99340749 -24.62372686 161.43523433 -33.3059082 161.48046875 C-35.53427316 161.49975569 -37.75883579 161.56185771 -39.98632812 161.625 C-53.32002496 161.82210345 -64.05555287 158.04074249 -75.25 150.75 C-76.28640625 150.08484375 -77.3228125 149.4196875 -78.390625 148.734375 C-80.26133735 147.49096739 -82.13100923 146.24599385 -84 145 C-84 144.34 -84 143.68 -84 143 C-84.57105469 142.76152344 -85.14210937 142.52304687 -85.73046875 142.27734375 C-98.22118408 135.24728538 -106.94877443 116.8660251 -111.00390625 103.75390625 C-113.44031958 94.32604596 -114.18177478 85.33498129 -114.1875 75.625 C-114.19974609 74.53960937 -114.21199219 73.45421875 -114.22460938 72.3359375 C-114.2595651 53.04037769 -106.35903149 35.5589391 -94 21 C-93.54109375 20.39542969 -93.0821875 19.79085937 -92.609375 19.16796875 C-71.8836781 -7.48827395 -29.53445564 -15.66493164 0 0 Z " fill="#263040" transform="translate(327,170)" />
  <path d="M0 0 C5.89045506 0.48636785 10.15400922 2.24019352 15.3125 5.0625 C16.06160645 5.46807129 16.81071289 5.87364258 17.58251953 6.29150391 C23.59839871 9.62671878 28.9304396 13.33089227 34 18 C34.90105469 18.80953125 35.80210937 19.6190625 36.73046875 20.453125 C53.01757627 35.81916851 64.13494813 57.97883336 65.1081543 80.50317383 C65.73698012 108.5590721 59.55737487 132.95042283 40 154 C21.51482014 172.68005375 -0.89749858 183.02693082 -27.1015625 184.01953125 C-30.28735607 184.00357036 -32.93504716 183.7934957 -36 183 C-36 182.67 -36 182.34 -36 182 C-34.82824219 181.87882813 -33.65648437 181.75765625 -32.44921875 181.6328125 C-4.78921443 178.71409535 18.33213444 171.42620153 37.078125 149.54296875 C41.21217509 144.07291466 44.93438261 138.13123478 48 132 C48.66 132 49.32 132 50 132 C50.18175781 131.23816406 50.36351562 130.47632813 50.55078125 129.69140625 C51.73249309 124.8372976 52.92164091 120.03415575 54.5625 115.3125 C61.02611878 96.38590638 60.48049128 73.54861026 53 55 C52.71592285 54.27925293 52.4318457 53.55850586 52.13916016 52.81591797 C47.89754295 42.33487035 42.40160025 33.5219713 35 25 C34.35417969 24.25363281 33.70835937 23.50726563 33.04296875 22.73828125 C23.85623303 12.89396865 12.04811465 6.61763667 0 1 C0 0.67 0 0.34 0 0 Z " fill="#3A414E" transform="translate(324,159)" />
  <path d="M0 0 C9.51138062 0.02161677 18.95015133 0.48960242 28.4375 1.1328125 C30.00637907 5.8394497 28.19486531 9.9628206 27.03125 14.6875 C26.46584512 17.96833619 26.52432219 19.97273666 27.4375 23.1328125 C29.22949472 23.91563898 29.22949472 23.91563898 31.4375 24.1328125 C33.8803879 22.97790635 35.15292603 21.90168532 36.1015625 19.33862305 C36.66144869 17.11271521 37.12975243 14.88686287 37.5625 12.6328125 C37.87204652 11.10042934 38.18695193 9.56911665 38.5078125 8.0390625 C38.70528076 7.02295898 38.70528076 7.02295898 38.90673828 5.98632812 C39.4375 4.1328125 39.4375 4.1328125 41.4375 1.1328125 C44.0625 0.9453125 44.0625 0.9453125 46.4375 1.1328125 C47.78665457 5.522599 46.80236973 9.14853008 45.75 13.5078125 C45.58822266 14.2503125 45.42644531 14.9928125 45.25976562 15.7578125 C43.85687559 21.70564591 41.89325891 26.4956399 36.625 30.0078125 C31.64686766 31.76480039 28.06602672 31.74735088 23.125 29.8828125 C20.24604829 28.00814627 19.32137365 27.40314502 18.4375 24.1328125 C18.05157871 18.34399314 18.84831077 13.6949748 20.4375 8.1328125 C15.9825 8.6278125 15.9825 8.6278125 11.4375 9.1328125 C11.01597656 10.48117188 10.59445312 11.82953125 10.16015625 13.21875 C9.6068591 14.98179854 9.05346886 16.74481786 8.5 18.5078125 C8.22220703 19.39726562 7.94441406 20.28671875 7.65820312 21.203125 C7.39072266 22.05390625 7.12324219 22.9046875 6.84765625 23.78125 C6.47846069 24.95953369 6.47846069 24.95953369 6.10180664 26.16162109 C5.4375 28.1328125 5.4375 28.1328125 4.4375 30.1328125 C2.1275 29.4728125 -0.1825 28.8128125 -2.5625 28.1328125 C-0.5825 21.2028125 1.3975 14.2728125 3.4375 7.1328125 C1.4575 7.1328125 -0.5225 7.1328125 -2.5625 7.1328125 C-3.2225 6.8028125 -3.8825 6.4728125 -4.5625 6.1328125 C-3.49424465 0.18110414 -3.49424465 0.18110414 0 0 Z " fill="#11F6D5" transform="translate(260.5625,195.8671875)" />
  <path d="M0 0 C3.84938874 0.54991268 5.51564541 2.06350259 8 5 C9.23046875 8.09375 9.23046875 8.09375 10.1875 11.5 C10.51105469 12.6240625 10.83460938 13.748125 11.16796875 14.90625 C11.44253906 15.9271875 11.71710938 16.948125 12 18 C12.176521 18.61004883 12.35304199 19.22009766 12.53491211 19.84863281 C16.94766813 40.26081445 11.53056247 60.07576757 0.578125 77.2265625 C-0.5369999 78.87301162 -1.75776783 80.44720978 -3 82 C-3.66 82 -4.32 82 -5 82 C-5.26039063 82.59167969 -5.52078125 83.18335938 -5.7890625 83.79296875 C-12.67984738 96.3519799 -30.81117495 101.9996098 -43.546875 105.75 C-51.23218 107.60685222 -59.15005202 107.17530901 -67 107 C-67.33 106.34 -67.66 105.68 -68 105 C-66.34677734 104.97873047 -66.34677734 104.97873047 -64.66015625 104.95703125 C-43.63361797 104.4102805 -26.80750335 98.59071014 -12 83 C-9.75356146 80.09129482 -7.63794802 77.14357398 -5.59375 74.08984375 C-5.0678125 73.40019531 -4.541875 72.71054687 -4 72 C-3.34 72 -2.68 72 -2 72 C-1.88527344 71.29101562 -1.77054687 70.58203125 -1.65234375 69.8515625 C-0.95236469 66.7917738 0.1405363 64.23062927 1.4375 61.375 C7.58586616 46.73264822 8.65670856 27.33494556 2.9765625 12.2890625 C2.28222171 10.60984116 1.56160523 8.94102164 0.8046875 7.2890625 C-0.09475117 4.73046511 -0.14271059 2.69247316 0 0 Z " fill="#7BD2BF" transform="translate(352,213)" />
  <path d="M0 0 C14.85 0 29.7 0 45 0 C44.67 0.99 44.34 1.98 44 3 C33.11 3 22.22 3 11 3 C11 8.61 11 14.22 11 20 C13.04767578 19.98259766 13.04767578 19.98259766 15.13671875 19.96484375 C25.14894729 19.90631944 35.03111727 19.96427192 45 21 C45 21.66 45 22.32 45 23 C30.15 23 15.3 23 0 23 C0 15.41 0 7.82 0 0 Z " fill="#151F32" transform="translate(132,236)" />
  <path d="M0 0 C1 3 1 3 0.5078125 5.109375 C-1 7 -1 7 -4.2578125 7.828125 C-5.53398437 7.96734375 -6.81015625 8.1065625 -8.125 8.25 C-9.40632813 8.39953125 -10.68765625 8.5490625 -12.0078125 8.703125 C-12.99523437 8.80109375 -13.98265625 8.8990625 -15 9 C-15.33 10.32 -15.66 11.64 -16 13 C-15.36191406 12.91621094 -14.72382813 12.83242187 -14.06640625 12.74609375 C-13.24011719 12.64425781 -12.41382813 12.54242188 -11.5625 12.4375 C-10.73878906 12.33308594 -9.91507812 12.22867188 -9.06640625 12.12109375 C-8.04353516 12.06115234 -8.04353516 12.06115234 -7 12 C-6 13 -6 13 -6 18 C-9.3 18.66 -12.6 19.32 -16 20 C-16.66 23.63 -17.32 27.26 -18 31 C-19.9914056 31.38133299 -21.99279077 31.71325582 -24 32 C-25 31 -25 31 -25.15625 27.09765625 C-25.09737954 21.79195635 -24.35159341 16.66597664 -23.5 11.4375 C-23.35691406 10.52419922 -23.21382813 9.61089844 -23.06640625 8.66992188 C-22.71703202 6.44557264 -22.36148178 4.2224079 -22 2 C-18.79275702 0.93091901 -16.05565967 0.68224517 -12.6875 0.4375 C-11.02267578 0.31181641 -11.02267578 0.31181641 -9.32421875 0.18359375 C-6.20742844 0.01145609 -3.12067656 -0.03304801 0 0 Z " fill="#04C2EC" transform="translate(331,195)" />
  <path d="M0 0 C6.93 0 13.86 0 21 0 C21 0.33 21 0.66 21 1 C17.37 1.33 13.74 1.66 10 2 C10.0825 3.5675 10.165 5.135 10.25 6.75 C10.24309639 11.63085363 10.24309639 11.63085363 8.3125 14.5625 C4.46900178 16.9517016 0.53766323 17.12679671 -3.91015625 17.1328125 C-4.88259277 17.13482666 -5.8550293 17.13684082 -6.85693359 17.13891602 C-7.91477051 17.13432373 -8.97260742 17.12973145 -10.0625 17.125 C-11.17705566 17.12234131 -12.29161133 17.11968262 -13.43994141 17.11694336 C-23.58803852 17.0626203 -33.7306861 16.83287571 -43.875 16.5625 C-44.63918243 16.5429425 -45.40336487 16.52338501 -46.19070435 16.50323486 C-55.15414958 16.26878461 -64.07179385 15.87816655 -73 15 C-73 14.67 -73 14.34 -73 14 C-72.1127272 13.98969254 -71.22545441 13.97938507 -70.31129456 13.96876526 C-61.96748429 13.87096575 -53.62374785 13.76847685 -45.28006077 13.66066074 C-40.9900379 13.60539264 -36.70000826 13.55196657 -32.40991211 13.50268555 C-28.27314564 13.45509914 -24.13646464 13.40275868 -19.99979973 13.34705925 C-18.41810153 13.32660966 -16.83637988 13.30790097 -15.25464058 13.29092598 C-13.04670822 13.2669393 -10.8389388 13.23687744 -8.63110352 13.20532227 C-7.37201675 13.18977798 -6.11292999 13.1742337 -4.81568909 13.15821838 C-2.09702459 13.31913196 -2.09702459 13.31913196 -1 12 C-0.76572222 9.98405418 -0.58663876 7.961526 -0.4375 5.9375 C-0.293125 3.978125 -0.14875 2.01875 0 0 Z " fill="#2B3342" transform="translate(184,252)" />
  <path d="M0 0 C1.26714844 -0.01417969 2.53429687 -0.02835938 3.83984375 -0.04296875 C7.0625 0.1875 7.0625 0.1875 9.0625 2.1875 C8.0725 2.1875 7.0825 2.1875 6.0625 2.1875 C6.0625 3.5075 6.0625 4.8275 6.0625 6.1875 C7.0525 6.1875 8.0425 6.1875 9.0625 6.1875 C9.0625 6.8475 9.0625 7.5075 9.0625 8.1875 C8.0725 8.6825 8.0725 8.6825 7.0625 9.1875 C6.23765409 11.07645777 6.23765409 11.07645777 5.58984375 13.37109375 C5.33009766 14.21607422 5.07035156 15.06105469 4.80273438 15.93164062 C4.40538086 17.26485352 4.40538086 17.26485352 4 18.625 C3.46877273 20.37410083 2.9362802 22.12281803 2.40234375 23.87109375 C2.16894287 24.65025146 1.93554199 25.42940918 1.69506836 26.23217773 C1.0625 28.1875 1.0625 28.1875 0.0625 30.1875 C-2.2475 29.5275 -4.5575 28.8675 -6.9375 28.1875 C-4.9575 21.2575 -2.9775 14.3275 -0.9375 7.1875 C-2.9175 7.1875 -4.8975 7.1875 -6.9375 7.1875 C-7.5975 6.8575 -8.2575 6.5275 -8.9375 6.1875 C-7.75135042 -0.42104769 -6.69956277 0.03400793 0 0 Z " fill="#29F5A2" transform="translate(264.9375,195.8125)" />
  <path d="M0 0 C5.89045506 0.48636785 10.15400922 2.24019352 15.3125 5.0625 C16.06160645 5.46807129 16.81071289 5.87364258 17.58251953 6.29150391 C23.59839871 9.62671878 28.9304396 13.33089227 34 18 C34.90105469 18.80953125 35.80210937 19.6190625 36.73046875 20.453125 C44.46324583 27.7486002 53.09608654 37.50262338 56 48 C55.34 48.99 54.68 49.98 54 51 C53.731875 50.360625 53.46375 49.72125 53.1875 49.0625 C52.11332248 46.66868314 52.11332248 46.66868314 49 46 C47.7109375 43.8828125 47.7109375 43.8828125 46.375 41.125 C43.01251396 34.70039887 38.79396395 29.41336106 34 24 C33.44699219 23.36320312 32.89398438 22.72640625 32.32421875 22.0703125 C23.44322412 12.50616444 11.66940664 6.44105767 0 1 C0 0.67 0 0.34 0 0 Z " fill="#3A414F" transform="translate(324,159)" />
  <path d="M0 0 C0.99 0.33 1.98 0.66 3 1 C3.33 1.99 3.66 2.98 4 4 C4.66 3.34 5.32 2.68 6 2 C11.77106 12.30546428 14.87005058 23.15764482 14 35 C13.67 35 13.34 35 13 35 C12.01 43.25 11.02 51.5 10 60 C9.34 60 8.68 60 8 60 C7.67 60.99 7.34 61.98 7 63 C7.15726562 62.12988281 7.31453125 61.25976562 7.4765625 60.36328125 C9.91904636 43.03555323 9.00911214 25.4177528 3 9 C2.39273002 7.12600279 1.78788825 5.25121329 1.1875 3.375 C0.5996875 1.704375 0.5996875 1.704375 0 0 Z " fill="#2B3344" transform="translate(374,205)" />
  <path d="M0 0 C3.96 0 7.92 0 12 0 C11.67 6.93 11.34 13.86 11 21 C7.37 21 3.74 21 0 21 C0 14.07 0 7.14 0 0 Z " fill="#152034" transform="translate(114,237)" />
  <path d="M0 0 C0 0.33 0 0.66 0 1 C-1.81371094 1.41958984 -1.81371094 1.41958984 -3.6640625 1.84765625 C-19.1733108 5.58145252 -31.51839096 10.48354541 -43 22 C-44.0956681 23.03985929 -45.1934504 24.07749395 -46.29296875 25.11328125 C-58.05275143 36.32075839 -63.43959337 47.8980672 -69 63 C-69.33 63 -69.66 63 -70 63 C-69.44686 46.6823701 -58.43158158 31.03138923 -47 20 C-33.78734803 8.43675925 -18.08172568 -1.03873743 0 0 Z " fill="#3A414E" transform="translate(286,164)" />
  <path d="M0 0 C0.99 0.33 1.98 0.66 3 1 C2.34644531 1.74443359 2.34644531 1.74443359 1.6796875 2.50390625 C-1.7609699 6.42863883 -5.18064875 10.3672256 -8.54296875 14.359375 C-12.43337032 18.73998802 -16.28667464 21.60356521 -21.375 24.4375 C-22.07818359 24.83074463 -22.78136719 25.22398926 -23.50585938 25.62915039 C-35.24752133 32.02086597 -47.81369533 36.07093734 -61.1875 36.6875 C-61.96802734 36.73455078 -62.74855469 36.78160156 -63.55273438 36.83007812 C-67.54901227 37.03684059 -71.09216618 37.04156693 -75 36 C-75 35.67 -75 35.34 -75 35 C-73.82824219 34.87882812 -72.65648437 34.75765625 -71.44921875 34.6328125 C-42.1864723 31.54497206 -19.30429569 23.39747013 0 0 Z " fill="#414753" transform="translate(363,306)" />
  <path d="M0 0 C1.2065625 0.0309375 1.2065625 0.0309375 2.4375 0.0625 C3.78665457 4.4522865 2.80236973 8.07821758 1.75 12.4375 C1.58822266 13.18 1.42644531 13.9225 1.25976562 14.6875 C-0.17335368 20.76349644 -2.19106744 25.48154496 -7.5625 29.0625 C-9.75 28.6875 -9.75 28.6875 -11.5625 28.0625 C-10.514022 24.27184878 -9.39890183 20.5336343 -8.125 16.8125 C-6.60730866 12.34417015 -5.39095991 7.8178287 -4.2109375 3.25 C-3.27119527 0.07978525 -3.27119527 0.07978525 0 0 Z " fill="#07E3E9" transform="translate(304.5625,196.9375)" />
  <path d="M0 0 C5.74962635 3.3715496 11.49185681 5.45672663 17.875 7.3125 C18.6071875 7.52777344 19.339375 7.74304688 20.09375 7.96484375 C24.97113399 9.29064059 29.85650355 9.87105818 34.875 10.3125 C29.85122463 13.66168358 24.22223569 12.66117026 18.4453125 11.61328125 C16.96052923 11.2977093 15.47869442 10.96797205 14 10.625 C13.21987549 10.44638428 12.43975098 10.26776855 11.63598633 10.08374023 C2.92945798 7.98663937 -5.259047 5.39209845 -11.125 -1.6875 C-6.31559503 -2.88634584 -4.17310446 -2.63530909 0 0 Z " fill="#81D2C0" transform="translate(243.125,217.6875)" />
  <path d="M0 0 C1.45947705 0.06006078 2.91779272 0.1488689 4.375 0.25 C5.59316406 0.31960937 5.59316406 0.31960937 6.8359375 0.390625 C9 1 9 1 10.25 2.6875 C11.65661702 7.02456913 11.6764338 11.47007313 12 16 C8.37 16 4.74 16 1 16 C0.83125293 14.08351538 0.66508357 12.16680367 0.5 10.25 C0.4071875 9.18265625 0.314375 8.1153125 0.21875 7.015625 C0.04947717 4.6820782 0 2.33967818 0 0 Z " fill="#1B2539" transform="translate(183,227)" />
  <path d="M0 0 C1.05058594 0.34933594 2.10117187 0.69867188 3.18359375 1.05859375 C13.87282997 4.61610133 13.87282997 4.61610133 25 6 C26.23363281 6.04060547 26.23363281 6.04060547 27.4921875 6.08203125 C35.02196839 6.20207124 42.49974024 5.61315992 50 5 C42.4073119 10.06179207 33.4238961 9.36607617 24.625 9.375 C22.73007812 9.41173828 22.73007812 9.41173828 20.796875 9.44921875 C13.0137968 9.4734903 6.95289225 8.58093225 0 5 C0 3.35 0 1.7 0 0 Z " fill="#464D57" transform="translate(269,322)" />
  <path d="M0 0 C14.85 0 29.7 0 45 0 C44.67 0.99 44.34 1.98 44 3 C39.78654351 3.02503196 35.57312835 3.04301426 31.35961914 3.05493164 C29.93122604 3.05990862 28.50283788 3.06669262 27.07446289 3.07543945 C18.65607219 3.1256368 10.38062966 2.92631851 2 2 C2 8.6 2 15.2 2 22 C1.34 22 0.68 22 0 22 C0 14.74 0 7.48 0 0 Z " fill="#212A39" transform="translate(132,236)" />
  <path d="M0 0 C0.99 0.495 0.99 0.495 2 1 C1.01 1.495 1.01 1.495 0 2 C0 1.34 0 0.68 0 0 Z M-2 2 C-1.01 2.495 -1.01 2.495 0 3 C-0.99 3.495 -0.99 3.495 -2 4 C-2 3.34 -2 2.68 -2 2 Z M-4 4 C-3.34 4.33 -2.68 4.66 -2 5 C-2.65226562 5.60585937 -3.30453125 6.21171875 -3.9765625 6.8359375 C-15.06196456 17.46353535 -19.78954375 28.84852415 -25 43 C-25.33 43 -25.66 43 -26 43 C-25.58906582 30.87744167 -19.26387105 19.51931959 -12 10 C-9.9296875 8.30078125 -9.9296875 8.30078125 -8 7 C-7.2575 6.443125 -6.515 5.88625 -5.75 5.3125 C-5.1725 4.879375 -4.595 4.44625 -4 4 Z " fill="#3B4351" transform="translate(242,184)" />
  <path d="M0 0 C1.19882813 0.58007812 1.19882813 0.58007812 2.421875 1.171875 C3.52015625 1.69265625 4.6184375 2.2134375 5.75 2.75 C7.35101563 3.51570313 7.35101563 3.51570313 8.984375 4.296875 C18.85211144 8.62210331 27.9953446 10.66603681 38.75 11.25 C39.9359375 11.32734375 41.121875 11.4046875 42.34375 11.484375 C45.22859597 11.67049409 48.11349416 11.84213418 51 12 C51 12.33 51 12.66 51 13 C30.91295146 15.0734827 16.57872247 11.66690443 -1 2 C-0.67 1.34 -0.34 0.68 0 0 Z " fill="#2A303D" transform="translate(250,328)" />
  <path d="M0 0 C6.01984736 0.47650507 10.35728741 2.37416398 15.625 5.25 C16.36234375 5.63285156 17.0996875 6.01570312 17.859375 6.41015625 C23.7354017 9.55877987 27.85911749 13.51992748 32.125 18.625 C33.99475606 20.85860049 35.91523756 22.96458105 38 25 C37.67 25.66 37.34 26.32 37 27 C36.42894531 26.38253906 35.85789062 25.76507813 35.26953125 25.12890625 C24.98070223 14.38206894 13.38092436 7.23908167 0 1 C0 0.67 0 0.34 0 0 Z " fill="#545B67" transform="translate(324,159)" />
  <path d="M0 0 C-4.48224868 1.33210755 -7.17632769 0.49245958 -11.5625 -0.9375 C-23.65027122 -4.47842219 -36.54554246 -3.34128994 -49 -3 C-48.67 -3.66 -48.34 -4.32 -48 -5 C-34.36453116 -8.68937166 -12.07171903 -8.04781268 0 0 Z " fill="#161F2E" transform="translate(327,159)" />
  <path d="M0 0 C2.64 0 5.28 0 8 0 C8.33 3.63 8.66 7.26 9 11 C6.03 10.67 3.06 10.34 0 10 C0 6.7 0 3.4 0 0 Z " fill="#182335" transform="translate(185,253)" />
  <path d="M0 0 C2 1 2 1 3 3 C-9.53545288 7.30013637 -23.738343 11.39373112 -37 8 C-37 7.67 -37 7.34 -37 7 C-35.24236328 6.81824219 -35.24236328 6.81824219 -33.44921875 6.6328125 C-18.15861669 5.30510168 -18.15861669 5.30510168 -3.4375 1.3125 C-2.303125 0.879375 -1.16875 0.44625 0 0 Z " fill="#3A404D" transform="translate(325,334)" />
  <path d="M0 0 C1.26714844 -0.01417969 2.53429687 -0.02835938 3.83984375 -0.04296875 C7.0625 0.1875 7.0625 0.1875 9.0625 2.1875 C6.0925 2.1875 3.1225 2.1875 0.0625 2.1875 C-0.2675 3.5075 -0.5975 4.8275 -0.9375 6.1875 C0.0525 6.5175 1.0425 6.8475 2.0625 7.1875 C1.7325 9.1675 1.4025 11.1475 1.0625 13.1875 C0.0725 12.8575 -0.9175 12.5275 -1.9375 12.1875 C-1.6075 10.5375 -1.2775 8.8875 -0.9375 7.1875 C-1.88625 7.208125 -2.835 7.22875 -3.8125 7.25 C-6.9375 7.1875 -6.9375 7.1875 -8.9375 6.1875 C-7.75135042 -0.42104769 -6.69956277 0.03400793 0 0 Z " fill="#1EE6AB" transform="translate(264.9375,195.8125)" />
  <path d="M0 0 C0.66 0 1.32 0 2 0 C1.80664062 0.59425781 1.61328125 1.18851563 1.4140625 1.80078125 C-2.46698928 14.15482231 -3.46230882 26.13786104 -4 39 C-4.66 39 -5.32 39 -6 39 C-6.51888186 25.73968581 -6.66428426 11.97770009 0 0 Z " fill="#35AD96" transform="translate(230,218)" />
  <path d="M0 0 C0.268125 0.598125 0.53625 1.19625 0.8125 1.8125 C2.02300334 4.04237457 2.991379 5.45490692 5 7 C6.32 7 7.64 7 9 7 C9 9.31 9 11.62 9 14 C3.81650457 14.31100973 0.33445186 13.99283581 -4 11 C-5 8.4375 -5 8.4375 -5 6 C-4.34 5.34 -3.68 4.68 -3 4 C-2.9175 4.763125 -2.835 5.52625 -2.75 6.3125 C-1.85384206 9.52373261 -0.78388975 10.29374499 2 12 C1.505 10.4221875 1.505 10.4221875 1 8.8125 C0.16033218 5.61126643 -0.19750904 3.2588992 0 0 Z " fill="#1EF7BB" transform="translate(285,213)" />
  <path d="M0 0 C1 3 1 3 0.5078125 5.109375 C-1 7 -1 7 -4.2578125 7.828125 C-5.53398437 7.96734375 -6.81015625 8.1065625 -8.125 8.25 C-9.40632813 8.39953125 -10.68765625 8.5490625 -12.0078125 8.703125 C-12.99523437 8.80109375 -13.98265625 8.8990625 -15 9 C-15.33 10.65 -15.66 12.3 -16 14 C-16.33 14 -16.66 14 -17 14 C-17 11.69 -17 9.38 -17 7 C-11.72 6.34 -6.44 5.68 -1 5 C-1.66 4.01 -2.32 3.02 -3 2 C-4.93781081 1.67738501 -4.93781081 1.67738501 -7.1328125 1.92578125 C-7.93847656 1.98056641 -8.74414062 2.03535156 -9.57421875 2.09179688 C-10.41597656 2.16462891 -11.25773437 2.23746094 -12.125 2.3125 C-13.39923828 2.4043457 -13.39923828 2.4043457 -14.69921875 2.49804688 C-16.80053665 2.65151391 -18.90045124 2.82397722 -21 3 C-18.28930273 0.28930273 -16.53337906 0.608222 -12.75 0.375 C-11.07164062 0.26285156 -11.07164062 0.26285156 -9.359375 0.1484375 C-6.23378505 0.01033004 -3.1280748 -0.02843704 0 0 Z " fill="#0398DA" transform="translate(331,195)" />
  <path d="M0 0 C0.99 0.33 1.98 0.66 3 1 C2.56429688 1.49628906 2.12859375 1.99257813 1.6796875 2.50390625 C1.08414062 3.18324219 0.48859375 3.86257813 -0.125 4.5625 C-0.764375 5.29082031 -1.40375 6.01914062 -2.0625 6.76953125 C-3.77649969 8.74270428 -5.45232242 10.74191571 -7.125 12.75 C-9.50156938 15.54183016 -12.0362292 17.82075677 -15 20 C-15.66 19.34 -16.32 18.68 -17 18 C-14.64309231 14.75925192 -12.09939798 12.14587257 -9.0625 9.5625 C-5.6094545 6.61934346 -2.78856263 3.57284587 0 0 Z " fill="#444B56" transform="translate(363,306)" />
  <path d="M0 0 C1.07878418 0.01047363 2.15756836 0.02094727 3.26904297 0.03173828 C5.01894531 0.04140625 5.01894531 0.04140625 6.80419922 0.05126953 C8.02751953 0.06802734 9.25083984 0.08478516 10.51123047 0.10205078 C11.74228516 0.11107422 12.97333984 0.12009766 14.24169922 0.12939453 C17.29006862 0.1530253 20.33805429 0.18597024 23.38623047 0.22705078 C23.38623047 0.55705078 23.38623047 0.88705078 23.38623047 1.22705078 C14.15081645 3.51547195 4.75747966 4.3095506 -4.61376953 2.22705078 C-2.61376953 0.22705078 -2.61376953 0.22705078 0 0 Z " fill="#212744" transform="translate(157.61376953125,265.77294921875)" />
  <path d="M0 0 C1.10794922 0.10828125 1.10794922 0.10828125 2.23828125 0.21875 C13.97161489 1.29219348 25.26187182 0.9596134 37 0 C30.37152459 4.41898361 23.53496515 4.24382084 15.875 3.75 C15.00746094 3.71003906 14.13992188 3.67007812 13.24609375 3.62890625 C8.51031294 3.36220322 4.45295242 2.78118097 0 1 C0 0.67 0 0.34 0 0 Z " fill="#39414C" transform="translate(282,327)" />
  <path d="M0 0 C0.33 0.66 0.66 1.32 1 2 C-0.29989603 4.36317503 -1.64253727 6.56808826 -3.125 8.8125 C-3.516875 9.42931641 -3.90875 10.04613281 -4.3125 10.68164062 C-6.86093885 14.60007356 -9.58425749 17.80913733 -13 21 C-13.66 20.67 -14.32 20.34 -15 20 C-13.67853984 17.99138055 -12.34352515 15.9938692 -11 14 C-10.42121094 13.13375 -9.84242188 12.2675 -9.24609375 11.375 C-8.62863281 10.4675 -8.01117188 9.56 -7.375 8.625 C-6.78460938 7.75101562 -6.19421875 6.87703125 -5.5859375 5.9765625 C-5.06257813 5.32429688 -4.53921875 4.67203125 -4 4 C-3.34 4 -2.68 4 -2 4 C-1.34 2.68 -0.68 1.36 0 0 Z " fill="#84D3C2" transform="translate(352,281)" />
  <path d="M0 0 C2 2 2 2 2.125 4.625 C2.08375 5.40875 2.0425 6.1925 2 7 C-0.31 7 -2.62 7 -5 7 C-5 6.34 -5 5.68 -5 5 C-5.99 5 -6.98 5 -8 5 C-8 3.68 -8 2.36 -8 1 C-5.03104944 0.01034981 -3.0913386 -0.23779528 0 0 Z " fill="#0DF9E0" transform="translate(279,197)" />
  <path d="M0 0 C0.99 0.495 0.99 0.495 2 1 C2.91759602 3.76749313 3.73799139 6.50230462 4.5 9.3125 C4.92350882 10.8512487 5.35048874 12.38904705 5.78125 13.92578125 C6.0606543 14.95312378 6.0606543 14.95312378 6.34570312 16.0012207 C6.9589732 18.05822761 6.9589732 18.05822761 8.07617188 20.06713867 C9 22 9 22 9 25 C8.34 25 7.68 25 7 25 C-0.37991179 6.26854451 -0.37991179 6.26854451 0 0 Z " fill="#37AF99" transform="translate(225,258)" />
  <path d="M0 0 C0.99 0.33 1.98 0.66 3 1 C1.37982158 2.33918806 -0.24629343 3.6711969 -1.875 5 C-2.77992188 5.7425 -3.68484375 6.485 -4.6171875 7.25 C-7 9 -7 9 -9 9 C-9 9.66 -9 10.32 -9 11 C-9.66 11 -10.32 11 -11 11 C-11 11.66 -11 12.32 -11 13 C-12.96147874 14.38938077 -14.96166576 15.7260411 -17 17 C-14.3097441 10.3966446 -6.39438105 3.19719052 0 0 Z " fill="#424956" transform="translate(251,175)" />
  <path d="M0 0 C0.66 0.99 1.32 1.98 2 3 C1.68546875 3.59425781 1.3709375 4.18851563 1.046875 4.80078125 C-2.17698793 11.04458806 -4.73715135 17.35051179 -7 24 C-7.33 24 -7.66 24 -8 24 C-7.71759072 15.66892614 -4.72566206 9.37723425 -1 2 C-0.67 1.34 -0.34 0.68 0 0 Z " fill="#313949" transform="translate(224,203)" />
  <path d="M0 0 C3.65891181 0.98230245 7.40289259 1.250844 11.16796875 1.58203125 C4.98283754 5.70545206 -2.81664287 3.38754007 -9.7421875 2.01953125 C-10.43183594 1.87515625 -11.12148437 1.73078125 -11.83203125 1.58203125 C-11.83203125 1.25203125 -11.83203125 0.92203125 -11.83203125 0.58203125 C-7.35212044 -1.43392861 -4.6848778 -1.40455717 0 0 Z " fill="#69CDB6" transform="translate(266.83203125,226.41796875)" />
  <path d="M0 0 C5.53359156 0.5056435 9.56030575 1.95616868 14.4375 4.5625 C15.39172852 5.0565332 15.39172852 5.0565332 16.36523438 5.56054688 C17.91494576 6.36453248 19.45818322 7.18097666 21 8 C19.25683594 9.11083984 19.25683594 9.11083984 17 10 C14.98535156 9.40087891 14.98535156 9.40087891 12.890625 8.2265625 C12.13652344 7.8140625 11.38242187 7.4015625 10.60546875 6.9765625 C9.82816406 6.53054687 9.05085938 6.08453125 8.25 5.625 C7.45722656 5.18671875 6.66445313 4.7484375 5.84765625 4.296875 C3.89002792 3.21192436 1.94188219 2.11281376 0 1 C0 0.67 0 0.34 0 0 Z " fill="#3E4755" transform="translate(324,159)" />
  <path d="M0 0 C1.45903258 0.30921884 2.91720722 0.62248799 4.375 0.9375 C5.18710938 1.11152344 5.99921875 1.28554687 6.8359375 1.46484375 C9 2 9 2 11 3 C11 3.66 11 4.32 11 5 C5.5610835 5.21755666 1.12919186 5.10428384 -4 3 C-2.68 2.67 -1.36 2.34 0 2 C0 1.34 0 0.68 0 0 Z " fill="#74D5BF" transform="translate(249,222)" />
  <path d="M0 0 C0.33 0 0.66 0 1 0 C0.67021516 7.60154046 -1.12782571 13.97319219 -4 21 C-4.33 21 -4.66 21 -5 21 C-4.5003731 13.50559651 -2.56235522 7.04349737 0 0 Z " fill="#83D6C4" transform="translate(359,259)" />
  <path d="M0 0 C2.08369901 0.95753798 4.16694547 1.9160608 6.25 2.875 C7.41015625 3.40867187 8.5703125 3.94234375 9.765625 4.4921875 C12.19853869 5.6263719 14.60910636 6.78088096 17 8 C16.34 8.66 15.68 9.32 15 10 C9.72 7.36 4.44 4.72 -1 2 C-0.67 1.34 -0.34 0.68 0 0 Z " fill="#1F2534" transform="translate(250,328)" />
  <path d="M0 0 C0 0.66 0 1.32 0 2 C-4.15626368 3.00926479 -8.04365094 3.10239579 -12.3125 3.0625 C-13.56675781 3.05347656 -14.82101563 3.04445313 -16.11328125 3.03515625 C-17.06589844 3.02355469 -18.01851562 3.01195312 -19 3 C-19 2.67 -19 2.34 -19 2 C-16.9620493 1.46481117 -14.91940991 0.94745907 -12.875 0.4375 C-11.73804688 0.14746094 -10.60109375 -0.14257812 -9.4296875 -0.44140625 C-5.93510616 -1.01056927 -3.42796653 -0.78666101 0 0 Z " fill="#3D3F47" transform="translate(190,266)" />
  <path d="M0 0 C0.66 0.99 1.32 1.98 2 3 C2.66 3 3.32 3 4 3 C4 2.34 4 1.68 4 1 C4.66 1.33 5.32 1.66 6 2 C5.34 3.98 4.68 5.96 4 8 C2.02 8.33 0.04 8.66 -2 9 C-1.51421457 5.87709365 -1.0013988 3.00419641 0 0 Z " fill="#313845" transform="translate(382,265)" />
  <path d="M0 0 C0.66 0.66 1.32 1.32 2 2 C1.7578125 4.8203125 1.7578125 4.8203125 1.125 8.125 C0.92132813 9.22070312 0.71765625 10.31640625 0.5078125 11.4453125 C0.34023438 12.28835937 0.17265625 13.13140625 0 14 C0.66 14 1.32 14 2 14 C1.67 14.66 1.34 15.32 1 16 C-1.475 15.01 -1.475 15.01 -4 14 C-2.68 9.38 -1.36 4.76 0 0 Z " fill="#40EF79" transform="translate(262,210)" />
  <path d="M0 0 C3.45101522 4.24740335 6.73279209 8.61105071 10 13 C9.01 13 8.02 13 7 13 C4.95703125 10.59375 4.95703125 10.59375 2.8125 7.5 C2.09707031 6.4790625 1.38164062 5.458125 0.64453125 4.40625 C0.10183594 3.6121875 -0.44085938 2.818125 -1 2 C-0.67 1.34 -0.34 0.68 0 0 Z " fill="#40B89F" transform="translate(235,284)" />
  <path d="M0 0 C3.57294032 1.32002058 6.63953492 2.89521388 9.8125 5 C10.60269531 5.515625 11.39289063 6.03125 12.20703125 6.5625 C12.79871094 7.036875 13.39039063 7.51125 14 8 C14 8.66 14 9.32 14 10 C10.00118212 9.38479725 7.19641774 7.39731331 4 5 C4 4.34 4 3.68 4 3 C2.68 2.34 1.36 1.68 0 1 C0 0.67 0 0.34 0 0 Z " fill="#171F29" transform="translate(236,319)" />
  <path d="M0 0 C2.99220268 1.36370299 5.29026529 2.94908083 7.75 5.125 C8.67039063 5.93324219 8.67039063 5.93324219 9.609375 6.7578125 C10.06828125 7.16773438 10.5271875 7.57765625 11 8 C10.34 8.66 9.68 9.32 9 10 C8.34 9.67 7.68 9.34 7 9 C7 8.34 7 7.68 7 7 C6.401875 6.731875 5.80375 6.46375 5.1875 6.1875 C3.00152146 5.00082594 1.58667406 3.90400887 0 2 C0 1.34 0 0.68 0 0 Z " fill="#4ABEA7" transform="translate(244,297)" />
  <path d="M0 0 C0.99 0.33 1.98 0.66 3 1 C2.67 3.31 2.34 5.62 2 8 C3.65 7.67 5.3 7.34 7 7 C7 7.66 7 8.32 7 9 C5.0085944 9.38133299 3.00720923 9.71325582 1 10 C0 9 0 9 -0.09765625 6.93359375 C-0.08605469 6.10988281 -0.07445312 5.28617188 -0.0625 4.4375 C-0.05347656 3.61121094 -0.04445313 2.78492188 -0.03515625 1.93359375 C-0.02355469 1.29550781 -0.01195312 0.65742188 0 0 Z " fill="#08ECE9" transform="translate(306,217)" />
  <path d="M0 0 C1.61013585 0.73709784 3.21292391 1.49025857 4.8125 2.25 C5.70582031 2.66765625 6.59914063 3.0853125 7.51953125 3.515625 C10.10928331 5.06539789 11.38180834 6.48400766 13 9 C9.45756548 7.63408831 6.07372071 6.09068516 2.6875 4.375 C1.80449219 3.92898437 0.92148437 3.48296875 0.01171875 3.0234375 C-0.65214844 2.68570313 -1.31601562 2.34796875 -2 2 C-1.34 1.34 -0.68 0.68 0 0 Z " fill="#16202A" transform="translate(327,170)" />
  <path d="M0 0 C3.3 0 6.6 0 10 0 C10.33 0.99 10.66 1.98 11 3 C8.69 2.67 6.38 2.34 4 2 C3.67 2.99 3.34 3.98 3 5 C2.01 3.35 1.02 1.7 0 0 Z " fill="#05C1C5" transform="translate(279,197)" />
  <path d="M0 0 C0 2.31 0 4.62 0 7 C-1.32 6.67 -2.64 6.34 -4 6 C-4.33 4.35 -4.66 2.7 -5 1 C-2 0 -2 0 0 0 Z " fill="#18F9CB" transform="translate(294,220)" />
  <path d="M0 0 C4.82360189 -0.19294408 8.49646738 0.24252386 13 2 C10 4 10 4 7.51953125 3.5390625 C6.62621094 3.23742187 5.73289062 2.93578125 4.8125 2.625 C3.91144531 2.32851562 3.01039063 2.03203125 2.08203125 1.7265625 C1.39496094 1.48679688 0.70789063 1.24703125 0 1 C0 0.67 0 0.34 0 0 Z " fill="#242E3F" transform="translate(314,156)" />
  <path d="M0 0 C0.33 0.99 0.66 1.98 1 3 C-1.99531539 3.99843846 -3.17255732 4.00732761 -6.1875 3.5625 C-7.445625 3.376875 -8.70375 3.19125 -10 3 C-9.67 2.34 -9.34 1.68 -9 1 C-6.93359375 0.5859375 -6.93359375 0.5859375 -4.4375 0.375 C-3.61121094 0.30023438 -2.78492188 0.22546875 -1.93359375 0.1484375 C-0.97646484 0.07496094 -0.97646484 0.07496094 0 0 Z " fill="#313947" transform="translate(192,263)" />
  <path d="M0 0 C-5.625 4.875 -5.625 4.875 -9 6 C-8.8125 4.1875 -8.8125 4.1875 -8 2 C-3.744 -1.248 -3.744 -1.248 0 0 Z " fill="#47BDA8" transform="translate(351,215)" />
  <path d="M0 0 C0 0.66 0 1.32 0 2 C-2.31 2.33 -4.62 2.66 -7 3 C-7.33 2.01 -7.66 1.02 -8 0 C-5.13822943 -1.43088528 -3.06624227 -0.59991697 0 0 Z " fill="#3F4D58" transform="translate(190,266)" />
  <path d="M0 0 C0 0.99 0 1.98 0 3 C-2.31 3.33 -4.62 3.66 -7 4 C-7 3.34 -7 2.68 -7 2 C-2.25 0 -2.25 0 0 0 Z " fill="#78D6C5" transform="translate(317,313)" />
  <path d="M0 0 C0.66 0.33 1.32 0.66 2 1 C2 1.66 2 2.32 2 3 C-0.5 4.625 -0.5 4.625 -3 6 C-3.66 5.34 -4.32 4.68 -5 4 C-3.35 2.68 -1.7 1.36 0 0 Z " fill="#515660" transform="translate(351,320)" />
</svg>